HIERARCHY
ROOT hip
{
  OFFSET 0 0 0
  CHANNELS 6 Xposition Yposition Zposition Zrotation Yrotation Xrotation
  JOINT abdomen
  {
    OFFSET 0 20.6881 -0.73152
    CHANNELS 3 Zrotation Xrotation Yrotation
    JOINT chest
    {
      OFFSET 0 11.7043 -0.48768
      CHANNELS 3 Zrotation Xrotation Yrotation
      JOINT neck
      {
        OFFSET 0 22.1894 -2.19456
        CHANNELS 3 Zrotation Xrotation Yrotation
        JOINT head
        {
          OFFSET -0.24384 7.07133 1.2192
          CHANNELS 3 Zrotation Xrotation Yrotation
          JOINT leftEye
          {
            OFFSET 4.14528 8.04674 8.04672
            CHANNELS 3 Zrotation Xrotation Yrotation
            End Site
            {
              OFFSET 1 0 0
            }
          }
          JOINT rightEye
          {
            OFFSET -3.6576 8.04674 8.04672
            CHANNELS 3 Zrotation Xrotation Yrotation
            End Site
            {
              OFFSET 1 0 0
            }
          }
        }
      }
      JOINT rCollar
      {
        OFFSET -2.68224 19.2634 -4.8768
        CHANNELS 3 Zrotation Xrotation Yrotation
        JOINT rShldr
        {
          OFFSET -8.77824 -1.95073 1.46304
          CHANNELS 3 Zrotation Xrotation Yrotation
          JOINT rForeArm
          {
            OFFSET -28.1742 -1.7115 0.48768
            CHANNELS 3 Zrotation Xrotation Yrotation
            JOINT rHand
            {
              OFFSET -22.5879 0.773209 7.07136
              CHANNELS 3 Zrotation Xrotation Yrotation
              JOINT rThumb1
              {
                OFFSET -1.2192 -0.487915 3.41376
                CHANNELS 3 Zrotation Xrotation Yrotation
                JOINT rThumb2
                {
                  OFFSET -3.37035 -0.52449 3.41376
                  CHANNELS 3 Zrotation Xrotation Yrotation
                  End Site
                  {
                    OFFSET -1.78271 -1.18214 1.43049
                  }
                }
              }
              JOINT rIndex1
              {
                OFFSET -7.75947 0.938293 5.60832
                CHANNELS 3 Zrotation Xrotation Yrotation
                JOINT rIndex2
                {
                  OFFSET -2.54057 -0.884171 1.56538
                  CHANNELS 3 Zrotation Xrotation Yrotation
                  End Site
                  {
                    OFFSET -1.62519 -0.234802 1.16502
                  }
                }
              }
              JOINT rMid1
              {
                OFFSET -8.24714 1.18213 3.41376
                CHANNELS 3 Zrotation Xrotation Yrotation
                JOINT rMid2
                {
                  OFFSET -3.10165 -0.590103 1.0647
                  CHANNELS 3 Zrotation Xrotation Yrotation
                  End Site
                  {
                    OFFSET -2.48547 -0.328903 0.83742
                  }
                }
              }
              JOINT rRing1
              {
                OFFSET -8.82822 0.546677 1.51678
                CHANNELS 3 Zrotation Xrotation Yrotation
                JOINT rRing2
                {
                  OFFSET -2.60934 -0.819778 -0.0198488
                  CHANNELS 3 Zrotation Xrotation Yrotation
                  End Site
                  {
                    OFFSET -2.33842 -0.294052 0.168128
                  }
                }
              }
              JOINT rPinky1
              {
                OFFSET -8.27202 -0.0477905 -0.4584
                CHANNELS 3 Zrotation Xrotation Yrotation
                JOINT rPinky2
                {
                  OFFSET -1.82734 -0.647385 -0.700984
                  CHANNELS 3 Zrotation Xrotation Yrotation
                  End Site
                  {
                    OFFSET -1.69225 -0.51767 -0.607171
                  }
                }
              }
            }
          }
        }
      }
      JOINT lCollar
      {
        OFFSET 2.68224 19.2634 -4.8768
        CHANNELS 3 Zrotation Xrotation Yrotation
        JOINT lShldr
        {
          OFFSET 8.77824 -1.95073 1.46304
          CHANNELS 3 Zrotation Xrotation Yrotation
          JOINT lForeArm
          {
            OFFSET 28.1742 -1.7115 0.48768
            CHANNELS 3 Zrotation Xrotation Yrotation
            JOINT lHand
            {
              OFFSET 22.5879 0.773209 7.07136
              CHANNELS 3 Zrotation Xrotation Yrotation
              JOINT lThumb1
              {
                OFFSET 1.2192 -0.487915 3.41376
                CHANNELS 3 Zrotation Xrotation Yrotation
                JOINT lThumb2
                {
                  OFFSET 3.37035 -0.52449 3.41376
                  CHANNELS 3 Zrotation Xrotation Yrotation
                  End Site
                  {
                    OFFSET 1.78271 -1.18214 1.43049
                  }
                }
              }
              JOINT lIndex1
              {
                OFFSET 7.75947 0.938293 5.60832
                CHANNELS 3 Zrotation Xrotation Yrotation
                JOINT lIndex2
                {
                  OFFSET 2.54057 -0.884171 1.56538
                  CHANNELS 3 Zrotation Xrotation Yrotation
                  End Site
                  {
                    OFFSET 1.62519 -0.234802 1.16502
                  }
                }
              }
              JOINT lMid1
              {
                OFFSET 8.24714 1.18213 3.41376
                CHANNELS 3 Zrotation Xrotation Yrotation
                JOINT lMid2
                {
                  OFFSET 3.10165 -0.590103 1.0647
                  CHANNELS 3 Zrotation Xrotation Yrotation
                  End Site
                  {
                    OFFSET 2.48547 -0.328903 0.83742
                  }
                }
              }
              JOINT lRing1
              {
                OFFSET 8.82822 0.546677 1.51678
                CHANNELS 3 Zrotation Xrotation Yrotation
                JOINT lRing2
                {
                  OFFSET 2.60934 -0.819778 -0.0198488
                  CHANNELS 3 Zrotation Xrotation Yrotation
                  End Site
                  {
                    OFFSET 2.33842 -0.294052 0.168128
                  }
                }
              }
              JOINT lPinky1
              {
                OFFSET 8.27202 -0.0477905 -0.4584
                CHANNELS 3 Zrotation Xrotation Yrotation
                JOINT lPinky2
                {
                  OFFSET 1.82734 -0.647385 -0.700984
                  CHANNELS 3 Zrotation Xrotation Yrotation
                  End Site
                  {
                    OFFSET 1.69225 -0.51767 -0.607171
                  }
                }
              }
            }
          }
        }
      }
    }
  }
  JOINT rButtock
  {
    OFFSET -8.77824 4.35084 1.2192
    CHANNELS 3 Zrotation Xrotation Yrotation
    JOINT rThigh
    {
      OFFSET 0 -1.70687 -2.19456
      CHANNELS 3 Zrotation Xrotation Yrotation
      JOINT rShin
      {
        OFFSET 0 -36.8199 0.73152
        CHANNELS 3 Zrotation Xrotation Yrotation
        JOINT rFoot
        {
          OFFSET 0.73152 -45.1104 -5.12064
          CHANNELS 3 Zrotation Xrotation Yrotation
          End Site
          {
            OFFSET -1.1221 -3.69964 12.103
          }
        }
      }
    }
  }
  JOINT lButtock
  {
    OFFSET 8.77824 4.35084 1.2192
    CHANNELS 3 Zrotation Xrotation Yrotation
    JOINT lThigh
    {
      OFFSET 0 -1.70687 -2.19456
      CHANNELS 3 Zrotation Xrotation Yrotation
      JOINT lShin
      {
        OFFSET 0 -36.8199 0.73152
        CHANNELS 3 Zrotation Xrotation Yrotation
        JOINT lFoot
        {
          OFFSET -0.73152 -45.1104 -5.12064
          CHANNELS 3 Zrotation Xrotation Yrotation
          End Site
          {
            OFFSET 1.1221 -3.69964 12.103
          }
        }
      }
    }
  }
}
MOTION
Frames:	4
Frame Time:	0.03333
-57.22169996239245 70.48069763183594 26.67540004104376 19.007999897003174 -68.39439868927002 335.4319953918457 -15.410900115966797 14.82959970831871 6.851920187473297 3.768559992313385 -9.142269864678383 1.6335799545049667 -8.695260286331177 15.306900143623352 -12.965200245380402 9.893679991364479 -22.991399466991425 -23.428999185562134 0.0 0.0 0.0 0.0 0.0 0.0 0.0 0.0 0.0 35.30749976634979 -15.935199558734894 65.11110126972198 -8.651190251111984 -3.352629840373993 15.307900607585907 -1.3817900139838457 30.414699912071228 4.765269868075848 -2.2254198484006338e-09 1.2892087397631258e-09 -5.622382559522521e-09 -3.959712557843886e-09 2.2663471099804156e-09 -9.653717825131025e-09 -2.2254198484006338e-09 1.2892087397631258e-09 -5.622382559522521e-09 7.7309102565050125 5.474880114197731 0.41731400415301323 -2.2254198484006338e-09 1.2892087397631258e-09 -5.622382559522521e-09 2.905540131032467 0.9651830233633518 0.102901995414868 -2.2254198484006338e-09 1.2892087397631258e-09 -5.622382559522521e-09 10.27859978377819 0.7318009994924068 0.025912300043273717 -2.2254198484006338e-09 1.2892087397631258e-09 -5.622382559522521e-09 2.221670038998127 -0.733487019315362 -0.2089200052432716 0.0 0.0 0.0 -114.47700262069702 42.02640116214752 52.6554000377655 27.570498883724213 -42.25189983844757 -88.06730210781097 5.304969884455204 -52.71969795227051 10.658000260591507 -2.823981049004942e-09 -6.394884621840902e-10 3.0183855415089056e-10 -4.880575943388976e-09 -1.1664269550237805e-09 4.092726157978177e-10 -2.823981049004942e-09 -6.394884621840902e-10 3.0183855415089056e-10 -7.7309102565050125 5.474880114197731 -0.41731400415301323 -2.823981049004942e-09 -6.394884621840902e-10 3.0183855415089056e-10 -2.905540131032467 0.9651830233633518 -0.102901995414868 -2.823981049004942e-09 -6.394884621840902e-10 3.0183855415089056e-10 -10.27859978377819 0.7318009994924068 -0.025912300043273717 -2.823981049004942e-09 -6.394884621840902e-10 3.0183855415089056e-10 -2.221670038998127 -0.733487019315362 0.2089200052432716 0.0 0.0 0.0 -32.44990110397339 -50.28889775276184 -18.44750002026558 -0.9718499891459942 57.29889929294586 1.1464300286024809 -0.8845259808003902 4.711329974234104 9.058509841561317 0.0 0.0 0.0 3.361080139875412 -2.0281000435352325 -12.55249947309494 0.21141500445082784 45.35759747028351 -2.0414800755679607 12.961300313472748 -15.861099511384964 30.488900542259216
-58.096599945798516 70.6323013305664 26.30040004104376 14.179000407457352 -68.9695018529892 340.2199959754944 -12.346200048923492 15.160100162029266 7.051390036940575 2.504539992660284 -9.077910259366035 1.6967800073325634 -8.564180061221123 15.467800498008728 -13.243400305509567 10.92870019376278 -23.503299057483673 -23.77849906682968 0.0 0.0 0.0 0.0 0.0 0.0 0.0 0.0 0.0 34.776199758052826 -16.783999353647232 64.20190215110779 -8.502970039844513 -3.2761701196432114 15.028199851512909 -1.0558499861508608 27.438300848007202 4.195810072124004 -1.3915268937125802e-09 -1.7394086171407253e-10 -6.292566467891447e-10 -2.4147084332071245e-09 -2.9672264645341784e-10 -1.0589928933768533e-09 -1.3915268937125802e-09 -1.7394086171407253e-10 -6.292566467891447e-10 7.7309102565050125 5.474880114197731 0.41731400415301323 -1.3915268937125802e-09 -1.7394086171407253e-10 -6.292566467891447e-10 2.905540131032467 0.9651830233633518 0.102901995414868 -1.3915268937125802e-09 -1.7394086171407253e-10 -6.292566467891447e-10 10.27859978377819 0.7318009994924068 0.025912300043273717 -1.3915268937125802e-09 -1.7394086171407253e-10 -6.292566467891447e-10 2.221670038998127 -0.733487019315362 -0.2089200052432716 0.0 0.0 0.0 -112.36900091171265 43.09269994497299 50.63790142536163 27.600300908088684 -42.1358996629715 -87.8562980890274 6.620149835944176 -56.53840184211731 12.2775998711586 -1.084572431864217e-09 -3.2230218494078144e-10 -5.6274984672199935e-11 -1.8673063095775433e-09 -5.780975698144175e-10 -1.432454155292362e-10 -1.084572431864217e-09 -3.2230218494078144e-10 -5.6274984672199935e-11 -7.7309102565050125 5.474880114197731 -0.41731400415301323 -1.084572431864217e-09 -3.2230218494078144e-10 -5.6274984672199935e-11 -2.905540131032467 0.9651830233633518 -0.102901995414868 -1.084572431864217e-09 -3.2230218494078144e-10 -5.6274984672199935e-11 -10.27859978377819 0.7318009994924068 -0.025912300043273717 -1.084572431864217e-09 -3.2230218494078144e-10 -5.6274984672199935e-11 -2.221670038998127 -0.733487019315362 0.2089200052432716 0.0 0.0 0.0 -31.14290088415146 -49.40180003643036 -20.639500468969345 -0.9842029865831137 57.60589957237244 1.1793399788439274 -0.6590190064162016 3.637470044195652 9.778780192136765 0.0 0.0 0.0 6.465659961104393 -0.933045968413353 -12.109900116920471 0.18611900741234422 44.074399173259735 -1.9849300570786 12.5860995054245 -15.803000181913376 29.867899417877197
-58.67349995113909 70.6134033203125 26.16540003567934 10.24399995803833 -69.51380252838135 344.8289966583252 -10.98949983716011 14.713799357414246 7.405929788947105 1.9085100665688515 -8.885479867458344 1.8161999993026257 -8.655939772725105 15.5943001806736 -13.416200280189514 11.252800226211548 -24.085499346256256 -24.03169959783554 0.0 0.0 0.0 0.0 0.0 0.0 0.0 0.0 0.0 32.27590084075928 -16.587499380111694 63.256900906562805 -8.711519837379456 -3.3967099338769913 15.40310025215149 -0.6803990202024579 23.050799667835236 3.421489857137203 -9.92486093309708e-10 -8.850520316627808e-10 1.8980017557623796e-09 -1.6729018170735799e-09 -1.5398882169392891e-09 3.2997604648699053e-09 -9.92486093309708e-10 -8.850520316627808e-10 1.8980017557623796e-09 7.7309102565050125 5.474880114197731 0.41731400415301323 -9.92486093309708e-10 -8.850520316627808e-10 1.8980017557623796e-09 2.905540131032467 0.9651830233633518 0.102901995414868 -9.92486093309708e-10 -8.850520316627808e-10 1.8980017557623796e-09 10.27859978377819 0.7318009994924068 0.025912300043273717 -9.92486093309708e-10 -8.850520316627808e-10 1.8980017557623796e-09 2.221670038998127 -0.733487019315362 -0.2089200052432716 0.0 0.0 0.0 -111.63999795913696 44.573000371456146 49.36659872531891 27.72350013256073 -41.70710027217865 -87.01069951057434 6.677490100264549 -56.70639932155609 12.3492993414402 1.0231815394945443e-11 -8.697043085703626e-11 -1.892885848064907e-10 2.5579538487363607e-11 -1.5347723092418164e-10 -3.2741809263825417e-10 1.0231815394945443e-11 -8.697043085703626e-11 -1.892885848064907e-10 -7.7309102565050125 5.474880114197731 -0.41731400415301323 1.0231815394945443e-11 -8.697043085703626e-11 -1.892885848064907e-10 -2.905540131032467 0.9651830233633518 -0.102901995414868 1.0231815394945443e-11 -8.697043085703626e-11 -1.892885848064907e-10 -10.27859978377819 0.7318009994924068 -0.025912300043273717 1.0231815394945443e-11 -8.697043085703626e-11 -1.892885848064907e-10 -2.221670038998127 -0.733487019315362 0.2089200052432716 0.0 0.0 0.0 -31.11439973115921 -49.74609911441803 -22.519800066947937 -1.0169100109487772 58.269601464271545 1.2346499785780907 -0.4678959818556905 2.8179700300097466 10.292299836874008 0.0 0.0 0.0 8.075260296463966 -0.6515840068459511 -11.155900061130524 0.16518699587322772 43.130100667476654 -1.964080072939396 12.340000122785568 -15.901799350976944 29.353400766849518
-59.21029997803271 70.45240020751953 26.25940003246069 11.667000353336334 -69.9113005399704 344.87500190734863 -11.322199702262878 13.492199331521988 7.913240119814873 1.9790900498628616 -8.564969971776009 1.9916600547730923 -8.971639797091484 15.686800181865692 -13.483299762010574 10.868400111794472 -24.739400446414948 -24.188600778579712 0.0 0.0 0.0 0.0 0.0 0.0 0.0 0.0 0.0 27.85309910774231 -15.297099351882935 62.32320249080658 -9.268650189042091 -3.7111499905586243 16.43339976668358 -0.3643439803272486 17.24519982933998 2.4952800013124943 -1.0231815394945443e-09 -8.44124770082999e-10 1.9696244635269977e-09 -1.7394086171407253e-09 -1.468265509174671e-09 3.417426341911778e-09 -1.0231815394945443e-09 -8.44124770082999e-10 1.9696244635269977e-09 7.7309102565050125 5.474880114197731 0.41731400415301323 -1.0231815394945443e-09 -8.44124770082999e-10 1.9696244635269977e-09 2.905540131032467 0.9651830233633518 0.102901995414868 -1.0231815394945443e-09 -8.44124770082999e-10 1.9696244635269977e-09 10.27859978377819 0.7318009994924068 0.025912300043273717 -1.0231815394945443e-09 -8.44124770082999e-10 1.9696244635269977e-09 2.221670038998127 -0.733487019315362 -0.2089200052432716 0.0 0.0 0.0 -112.32799530029297 46.513001918792725 48.91860008239746 27.902298867702484 -40.93520075082779 -85.58669865131378 5.431560091674328 -53.227402567863464 10.829500034451485 4.553157850750722e-10 6.139089236967266e-11 -9.208633855450898e-11 7.929656931082718e-10 1.0743406164692715e-10 -1.4836132322670892e-10 4.553157850750722e-10 6.139089236967266e-11 -9.208633855450898e-11 -7.7309102565050125 5.474880114197731 -0.41731400415301323 4.553157850750722e-10 6.139089236967266e-11 -9.208633855450898e-11 -2.905540131032467 0.9651830233633518 -0.102901995414868 4.553157850750722e-10 6.139089236967266e-11 -9.208633855450898e-11 -10.27859978377819 0.7318009994924068 -0.025912300043273717 4.553157850750722e-10 6.139089236967266e-11 -9.208633855450898e-11 -2.221670038998127 -0.733487019315362 0.2089200052432716 0.0 0.0 0.0 -32.5438991189003 -51.31960093975067 -24.24200087785721 -1.0735199600458145 59.28989768028259 1.3156400341540575 -0.3268219926394522 2.2506300173699856 10.598500147461891 0.0 0.0 0.0 8.223100304603577 -1.1900699883699417 -9.687340334057808 0.1457520027179271 42.52490043640137 -1.9763500057160854 12.218500077724457 -16.1606003344059 28.944801092147827
